<svg width="60" height="60" viewBox="0 0 60 60" xmlns="http://www.w3.org/2000/svg">
  <!-- 背景圆 -->
  <circle cx="30" cy="30" r="30" fill="#1677FF"/>
  <!-- 支付宝标志 -->
  <path d="M35.5,15.5C33.8333,15.5 32.5,16.8333 32.5,18.5C32.5,20.1667 33.8333,21.5 35.5,21.5C37.1667,21.5 38.5,20.1667 38.5,18.5C38.5,16.8333 37.1667,15.5 35.5,15.5ZM30.5,18.5C30.5,17.1667 29.1667,15.8333 27.5,15.8333C25.8333,15.8333 24.5,17.1667 24.5,18.5C24.5,19.8333 25.8333,21.1667 27.5,21.1667C29.1667,21.1667 30.5,19.8333 30.5,18.5ZM28.8333,25.5C27.1667,25.5 25.8333,26.8333 25.8333,28.5C25.8333,30.1667 27.1667,31.5 28.8333,31.5C30.5,31.5 31.8333,30.1667 31.8333,28.5C31.8333,26.8333 30.5,25.5 28.8333,25.5ZM34.1667,25.5C32.5,25.5 31.1667,26.8333 31.1667,28.5C31.1667,30.1667 32.5,31.5 34.1667,31.5C35.8333,31.5 37.1667,30.1667 37.1667,28.5C37.1667,26.8333 35.8333,25.5 34.1667,25.5ZM39.5,25.5C37.8333,25.5 36.5,26.8333 36.5,28.5C36.5,30.1667 37.8333,31.5 39.5,31.5C41.1667,31.5 42.5,30.1667 42.5,28.5C42.5,26.8333 41.1667,25.5 39.5,25.5ZM20.5,34.1667C19.1667,34.1667 18,35.3333 18,36.8333C18,38.3333 19.1667,39.5 20.5,39.5C21.8333,39.5 23,38.3333 23,36.8333C23,35.3333 21.8333,34.1667 20.5,34.1667ZM25.8333,34.1667C24.5,34.1667 23.3333,35.3333 23.3333,36.8333C23.3333,38.3333 24.5,39.5 25.8333,39.5C27.1667,39.5 28.3333,38.3333 28.3333,36.8333C28.3333,35.3333 27.1667,34.1667 25.8333,34.1667ZM31.1667,34.1667C29.8333,34.1667 28.6667,35.3333 28.6667,36.8333C28.6667,38.3333 29.8333,39.5 31.1667,39.5C32.5,39.5 33.6667,38.3333 33.6667,36.8333C33.6667,35.3333 32.5,34.1667 31.1667,34.1667ZM36.5,34.1667C35.1667,34.1667 34,35.3333 34,36.8333C34,38.3333 35.1667,39.5 36.5,39.5C37.8333,39.5 39,38.3333 39,36.8333C39,35.3333 37.8333,34.1667 36.5,34.1667ZM41.8333,34.1667C40.5,34.1667 39.3333,35.3333 39.3333,36.8333C39.3333,38.3333 40.5,39.5 41.8333,39.5C43.1667,39.5 44.3333,38.3333 44.3333,36.8333C44.3333,35.3333 43.1667,34.1667 41.8333,34.1667Z" fill="white"/>
</svg>