<svg width="60" height="60" viewBox="0 0 60 60" xmlns="http://www.w3.org/2000/svg">
  <!-- 背景圆 -->
  <circle cx="30" cy="30" r="30" fill="#07C160"/>
  <!-- 微信标志 -->
  <path d="M20,45C16,41.3333 16,33.3333 18.6667,29C18.6667,28.6667 19,28.3333 19,28C19,26.6667 19.6667,25.6667 21,25C19.3333,23.3333 18,21 18,18.3333C18,13.3333 22.3333,10 28.3333,10C34,10 38,13 39.6667,17.6667C39.6667,17.6667 40.3333,17.6667 41,17.6667C45,17.6667 48.3333,20.3333 48.3333,24C48.3333,27.3333 46,30 42.6667,31.3333C42.6667,31.3333 43,31.6667 43,32C43,33 42.3333,33.6667 41.3333,34C42.3333,35 42.6667,36.3333 42.6667,38C42.6667,42.3333 38.6667,45.6667 32.6667,46C32.6667,46 29.3333,46 20,45ZM21.6667,39C25.3333,39.6667 28.3333,39.6667 32.3333,39.3333C30.3333,39.3333 29,38.6667 29,37.3333C29,36.3333 30,35.6667 31.6667,35.3333C35.3333,34.6667 37.6667,33.6667 39,32.6667C38.6667,32.3333 38.3333,32 38,32C37.6667,31 38,30 39,29.6667C41.3333,28.6667 43,26.6667 43,24.3333C43,21.6667 40.3333,20 37,20C36.6667,20 36.3333,20 36,20.3333C34.3333,16.3333 31,14.3333 28,14.3333C23.3333,14.3333 20.3333,17 20.3333,21C20.3333,22.6667 21,24.3333 22.3333,25.6667C21.6667,26.3333 21.3333,27.3333 21.3333,28.3333C21.3333,29.6667 22,30.6667 23.3333,31C23.3333,31 23,31.3333 23,32C23,33.3333 24.3333,34.3333 26,34.3333C27,34.3333 27.6667,33.6667 28,32.6667C28,32.6667 28.3333,32.6667 28.6667,32.6667C27.6667,33.6667 27.6667,35 29,35.6667C29,35.6667 29,37 29,37C26.3333,37 23.6667,37 21.6667,36.6667V39Z" fill="white"/>
</svg>